<svg width="190" height="68" viewBox="0 0 76 27" fill="none" xmlns="http://www.w3.org/2000/svg">
<g clip-path="url(#clip0_31_247)">
<g filter="url(#filter0_b_31_247)">
<ellipse cx="13.4597" cy="13.4597" rx="12.8149" ry="12.8149" fill="#333738" fill-opacity="0.38"/>
<path d="M26.1746 13.4597C26.1746 20.482 20.482 26.1746 13.4597 26.1746C6.43744 26.1746 0.744775 20.482 0.744775 13.4597C0.744775 6.43744 6.43744 0.744775 13.4597 0.744775C20.482 0.744775 26.1746 6.43744 26.1746 13.4597Z" stroke="#414141" stroke-width="0.2"/>
</g>
<path d="M1.74292 10.6538L1.88753 10.2323L3.21797 10.6827C3.31093 10.7161 3.40849 10.7349 3.5072 10.7386C3.5884 10.7418 3.66934 10.7274 3.74436 10.6962C3.81408 10.6657 3.87567 10.6194 3.92417 10.5608C4.03224 10.4227 4.09019 10.252 4.08854 10.0767C4.08559 9.99983 4.06445 9.92472 4.02684 9.85757C3.98615 9.78731 3.93073 9.72668 3.86439 9.67983C3.7839 9.62334 3.69533 9.57933 3.60168 9.5493L2.27124 9.09893L2.41585 8.67698L3.76557 9.13361C3.86139 9.16524 3.95325 9.20775 4.03937 9.26029C4.11764 9.30915 4.18911 9.3681 4.25196 9.43562C4.31038 9.49962 4.35911 9.57184 4.39657 9.64997C4.43424 9.7279 4.46069 9.81077 4.47514 9.8961C4.48995 9.98572 4.49286 10.0769 4.48382 10.1673C4.47372 10.2658 4.4522 10.3628 4.41971 10.4563C4.37466 10.595 4.30475 10.7245 4.21339 10.8383C4.13091 10.9414 4.02686 11.0253 3.90854 11.084C3.79022 11.1427 3.66048 11.1749 3.52841 11.1783C3.37895 11.1826 3.23002 11.1589 3.08927 11.1085L1.74292 10.6538Z" fill="white"/>
<path d="M5.03298 8.93517L4.82859 9.33063L2.67627 8.21844L2.88114 7.82299L5.03298 8.93517Z" fill="white"/>
<path d="M5.65269 9.10521L3.47241 6.69684L3.70235 6.35051L5.88263 8.75888L5.65269 9.10521Z" fill="white"/>
<path d="M4.12427 5.89774L4.43663 5.57935L5.44025 6.56052C5.50932 6.63061 5.58883 6.68959 5.67597 6.73537C5.74769 6.77333 5.82679 6.79535 5.90783 6.79991C5.98485 6.80306 6.06151 6.78787 6.1315 6.7556C6.2888 6.67807 6.41496 6.54929 6.48917 6.39049C6.51952 6.31973 6.53289 6.24287 6.52822 6.16603C6.52232 6.08574 6.49948 6.0076 6.46121 5.93675C6.41319 5.85086 6.3524 5.77274 6.28093 5.70507L5.27635 4.72389L5.58823 4.40551L6.60583 5.39824C6.6791 5.4693 6.74381 5.54867 6.79864 5.63474C6.84826 5.71257 6.88733 5.79663 6.91482 5.88473C6.94032 5.96794 6.95348 6.05444 6.95386 6.14146C6.95413 6.22798 6.94212 6.31409 6.91819 6.39723C6.89283 6.48446 6.85587 6.56789 6.80829 6.64529C6.75656 6.73019 6.69508 6.80875 6.62511 6.87939C6.52427 6.98476 6.40523 7.07108 6.2737 7.13419C6.1547 7.19139 6.02465 7.22197 5.89261 7.2238C5.76057 7.22564 5.62972 7.19867 5.50918 7.14479C5.37262 7.08384 5.24856 6.99809 5.14331 6.89191L4.12427 5.89774Z" fill="white"/>
<path d="M7.88564 4.25857L9.27344 4.84044L8.82851 5.12222L7.782 4.66896L7.75982 5.79849L7.34189 6.06293L7.3901 4.57648L6.0852 3.99269L6.52676 3.71332L7.49856 4.16561L7.5053 3.09389L7.92227 2.82993L7.88564 4.25857Z" fill="white"/>
<path d="M9.37842 2.20473L10.1916 1.99231C10.3049 1.96291 10.4212 1.94674 10.5382 1.94414C10.6457 1.94132 10.7531 1.95233 10.8578 1.9769C10.957 2.00078 11.0524 2.03839 11.1413 2.08865C11.2301 2.13909 11.3113 2.20203 11.3823 2.27554C11.4556 2.35213 11.5183 2.43814 11.5688 2.53131C11.6778 2.73612 11.7373 2.96362 11.7424 3.19554C11.744 3.30172 11.7315 3.40765 11.7052 3.51055C11.6797 3.60877 11.6403 3.70284 11.5881 3.78992C11.5351 3.87732 11.4702 3.95692 11.3953 4.02642C11.3162 4.09895 11.2281 4.16096 11.1331 4.21091C11.0293 4.26563 10.9195 4.30783 10.8057 4.33662L9.99254 4.54904L9.37842 2.20473ZM10.6987 3.95466C10.8095 3.92774 10.9145 3.88107 11.0087 3.8169C11.091 3.76025 11.1596 3.68605 11.2097 3.59966C11.2591 3.51077 11.2884 3.41211 11.2955 3.31066C11.3082 3.07525 11.2472 2.84174 11.121 2.64257C11.065 2.55825 10.9913 2.48708 10.905 2.43401C10.8192 2.38312 10.723 2.35202 10.6235 2.34297C10.5101 2.33308 10.3958 2.34368 10.2861 2.37428L9.90336 2.47447L10.3174 4.05484L10.6987 3.95466Z" fill="white"/>
<path d="M13.6614 1.53136L13.6802 1.92393L12.4722 1.98221L12.5021 2.61128L13.6108 2.55781L13.6292 2.93833L12.5205 2.9918L12.5508 3.61557L13.7911 3.55584L13.8099 3.94841L12.1228 4.02933L12.0066 1.61084L13.6614 1.53136Z" fill="white"/>
<path d="M15.2367 1.64743C15.373 1.66655 15.5058 1.70583 15.6305 1.764C15.7365 1.8129 15.832 1.88194 15.9115 1.96726C15.9844 2.04658 16.0379 2.14172 16.0677 2.24519C16.0984 2.35606 16.1044 2.47232 16.0851 2.58573L15.6594 2.51974C15.6699 2.46017 15.6654 2.39895 15.6464 2.34152C15.6276 2.2859 15.5962 2.23532 15.5548 2.19365C15.5082 2.14768 15.4537 2.11047 15.3938 2.08383C15.3238 2.05285 15.2498 2.03146 15.174 2.02025C15.1063 2.00962 15.0376 2.00639 14.9692 2.01061C14.9059 2.01357 14.8435 2.02607 14.7841 2.0477C14.7308 2.0668 14.6826 2.09758 14.6428 2.13778C14.604 2.17841 14.5791 2.23039 14.572 2.28613C14.5624 2.3327 14.569 2.38112 14.5908 2.42341C14.6152 2.46473 14.6497 2.4992 14.691 2.5236C14.746 2.55656 14.8043 2.58353 14.865 2.60404C14.9351 2.62844 15.0154 2.65445 15.1061 2.68207L15.215 2.7153C15.2806 2.73553 15.348 2.75769 15.4175 2.78129C15.486 2.80446 15.5531 2.83164 15.6185 2.8627C15.6819 2.89302 15.7424 2.92914 15.7992 2.97059C15.8538 3.01052 15.9012 3.05938 15.9395 3.11509C15.9789 3.17346 16.0065 3.23889 16.021 3.30776C16.0371 3.38911 16.0379 3.47274 16.0234 3.55438C16.0083 3.66856 15.9652 3.77725 15.8981 3.87084C15.8336 3.95739 15.7491 4.02699 15.6517 4.07363C15.5427 4.12473 15.4252 4.15558 15.3051 4.16466C15.1627 4.17634 15.0195 4.17035 14.8785 4.14684C14.7278 4.12588 14.5807 4.08422 14.4413 4.02305C14.3268 3.97362 14.2231 3.90246 14.1357 3.81352C14.0578 3.73308 14.0007 3.63487 13.9694 3.52741C13.9375 3.41247 13.9314 3.29191 13.9516 3.17434L14.3748 3.23937C14.3635 3.30228 14.3683 3.36703 14.3888 3.42759C14.4092 3.48815 14.4447 3.54254 14.4919 3.58569C14.5457 3.6348 14.6077 3.67409 14.6751 3.70177C14.7568 3.73565 14.8425 3.75912 14.9301 3.77162C15.0079 3.78391 15.0867 3.78827 15.1653 3.78462C15.234 3.78229 15.3019 3.76896 15.3664 3.74512C15.4225 3.72513 15.473 3.69211 15.5139 3.64879C15.5536 3.60393 15.5791 3.54826 15.5871 3.48887C15.5989 3.4375 15.5935 3.3837 15.5717 3.3357C15.5491 3.29302 15.5159 3.25687 15.4753 3.2307C15.423 3.19742 15.3669 3.17072 15.308 3.15122C15.2418 3.1281 15.1679 3.10386 15.0863 3.07849L14.9489 3.0361C14.9007 3.02069 14.8491 3.00527 14.7975 2.98793C14.746 2.97059 14.6949 2.95325 14.6443 2.9335C14.5936 2.91375 14.5454 2.89208 14.4996 2.86848C14.4535 2.84555 14.4093 2.8188 14.3676 2.78852C14.3275 2.7593 14.2905 2.72605 14.2572 2.68929C14.2246 2.65251 14.1976 2.61112 14.1772 2.56647C14.1559 2.51906 14.1419 2.46872 14.1357 2.41715C14.129 2.357 14.1306 2.29622 14.1405 2.23652C14.1515 2.16004 14.1753 2.08595 14.2109 2.01736C14.2434 1.95391 14.2864 1.89641 14.3382 1.84733C14.3902 1.79822 14.4496 1.75744 14.5141 1.72643C14.5828 1.69347 14.6551 1.66858 14.7296 1.65225C14.8104 1.63509 14.8928 1.62621 14.9754 1.62576C15.063 1.62579 15.1503 1.63304 15.2367 1.64743Z" fill="white"/>
<path d="M16.4352 4.46956L16.0095 4.33758L16.7263 2.02554L17.152 2.15704L16.4352 4.46956Z" fill="white"/>
<path d="M17.5386 3.56883C17.4816 3.68007 17.4401 3.79852 17.4152 3.92093C17.3947 4.0217 17.3947 4.12555 17.4152 4.22632C17.4342 4.31797 17.4751 4.40371 17.5342 4.4763C17.5991 4.55405 17.6802 4.61669 17.7719 4.65982C17.8575 4.70348 17.9499 4.73216 18.0452 4.7446C18.1319 4.75624 18.22 4.75167 18.305 4.73111C18.3863 4.71105 18.4629 4.67502 18.5301 4.62514C18.599 4.57348 18.6562 4.50781 18.6979 4.43247L18.0206 4.0953L18.1729 3.78896L19.2305 4.31446L18.6521 5.47433L18.2756 5.28744L18.5605 4.71281C18.4902 4.79033 18.409 4.85718 18.3195 4.91126C18.2352 4.96209 18.1432 4.99886 18.0471 5.02012C17.9529 5.04034 17.856 5.04473 17.7603 5.03312C17.6595 5.02049 17.5616 4.9905 17.4711 4.94449C17.3869 4.90311 17.3097 4.84901 17.2421 4.7841C17.1772 4.72099 17.1222 4.64839 17.0792 4.56879C17.0347 4.48734 17.0022 4.39989 16.9828 4.30916C16.9624 4.21262 16.9543 4.1139 16.9587 4.01534C16.9632 3.90842 16.9794 3.80231 17.0069 3.69888C17.0381 3.58537 17.0804 3.47518 17.1332 3.3699C17.186 3.26268 17.2507 3.1617 17.326 3.06885C17.3946 2.98395 17.4736 2.90805 17.5612 2.84295C17.6435 2.78164 17.7338 2.73203 17.8297 2.69555C17.9224 2.65968 18.0198 2.63745 18.1189 2.62956C18.2209 2.62192 18.3234 2.6284 18.4236 2.64883C18.5306 2.67079 18.6342 2.70692 18.7316 2.75624C18.8527 2.81515 18.9632 2.89377 19.0584 2.98889C19.2398 3.16848 19.3486 3.40855 19.3641 3.66324C19.3727 3.79765 19.3574 3.93254 19.3187 4.06158L18.9206 3.86361C18.9399 3.78652 18.9462 3.70676 18.9394 3.62759C18.9259 3.48184 18.8593 3.3461 18.7523 3.24611C18.6943 3.1917 18.6283 3.1464 18.5566 3.11172C18.4652 3.06439 18.3649 3.03651 18.2621 3.02984C18.1672 3.02521 18.0726 3.04304 17.9859 3.08186C17.8923 3.12556 17.8084 3.18745 17.7391 3.26393C17.658 3.3555 17.5905 3.45817 17.5386 3.56883Z" fill="white"/>
<path d="M20.4182 6.96849L19.9101 6.53498L20.4288 4.25762L19.0844 5.82981L18.7571 5.55044L20.3314 3.70996L20.8781 4.1767L20.3869 6.34424L21.6652 4.85105L21.9921 5.13042L20.4182 6.96849Z" fill="white"/>
<path d="M23.4262 6.94296L23.1133 7.18091L22.3806 6.21756L21.8788 6.59905L22.5537 7.48148L22.2505 7.7122L21.578 6.82977L21.0806 7.20837L21.833 8.1958L21.5202 8.43375L20.4954 7.09276L22.4235 5.62655L23.4262 6.94296Z" fill="white"/>
<path d="M21.5742 8.4978L23.7627 7.45931L24.2713 8.52911C24.3233 8.63528 24.358 8.74912 24.3739 8.86628C24.3877 8.96811 24.3817 9.07165 24.3561 9.17118C24.331 9.2639 24.2858 9.34993 24.2235 9.4231C24.1572 9.50009 24.075 9.56187 23.9825 9.60421C23.9026 9.64348 23.8158 9.66672 23.727 9.6726C23.6451 9.67781 23.5629 9.66566 23.486 9.63696C23.4075 9.60652 23.336 9.56047 23.2758 9.50161C23.2078 9.43595 23.1517 9.35903 23.11 9.27426C23.1437 9.36029 23.1473 9.4552 23.1201 9.54351C23.0857 9.65058 23.0288 9.7491 22.9533 9.83252L22.4742 10.3932L22.2631 9.94908L22.7398 9.38745C22.7699 9.35341 22.7958 9.31589 22.8169 9.2757C22.8355 9.24105 22.8469 9.20307 22.8507 9.16396C22.8537 9.12371 22.8494 9.08325 22.8381 9.0445C22.824 8.99472 22.8053 8.94635 22.7822 8.9L22.5952 8.50599L21.767 8.89903L21.5742 8.4978ZM23.2315 8.96213C23.2586 9.02124 23.2941 9.07608 23.3371 9.12494C23.3728 9.16539 23.4164 9.19817 23.4653 9.22127C23.5105 9.24246 23.56 9.25269 23.6099 9.25114C23.7183 9.24535 23.8202 9.19747 23.8938 9.11771C23.9258 9.08084 23.9481 9.03667 23.9589 8.98911C23.9698 8.93669 23.9698 8.88258 23.9589 8.83015C23.9467 8.7655 23.9257 8.7028 23.8967 8.64375L23.6031 8.02576L22.9379 8.34511L23.2315 8.96213Z" fill="white"/>
<path d="M22.5976 10.9895L22.4602 10.5319L22.9422 10.3874L23.0796 10.845L22.5976 10.9895Z" fill="#FF5D15"/>
<path d="M24.0881 12.2159C23.9634 12.2206 23.8399 12.2426 23.7213 12.2814C23.6232 12.3129 23.5325 12.3637 23.4542 12.4307C23.3838 12.4925 23.3293 12.5703 23.2952 12.6575C23.2594 12.7522 23.2446 12.8534 23.2518 12.9543C23.2559 13.0502 23.2764 13.1447 23.3125 13.2336C23.3451 13.3149 23.3925 13.3893 23.4523 13.4533C23.5096 13.5145 23.5786 13.5637 23.6553 13.5978C23.7344 13.6325 23.82 13.6499 23.9064 13.6488L23.8664 12.8941L24.2082 12.8757L24.2703 14.0544L22.9761 14.1228L22.9539 13.7033L23.595 13.6695C23.4926 13.6462 23.3942 13.6081 23.3029 13.5564C23.2171 13.5084 23.1399 13.4465 23.0744 13.3733C23.0102 13.3014 22.9585 13.2191 22.9216 13.1301C22.8836 13.0361 22.8618 12.9365 22.857 12.8353C22.8462 12.6503 22.8932 12.4665 22.9915 12.3093C23.0412 12.2312 23.1018 12.1605 23.1713 12.0993C23.2456 12.0345 23.3277 11.9792 23.4157 11.9346C23.5113 11.886 23.612 11.8484 23.716 11.8223C23.8302 11.7936 23.9469 11.7762 24.0645 11.7703C24.1841 11.7634 24.3041 11.7698 24.4222 11.7896C24.5298 11.8079 24.6347 11.8394 24.7346 11.8835C24.8283 11.9249 24.9159 11.9791 24.9949 12.0444C25.0721 12.1078 25.1397 12.1821 25.1954 12.265C25.2523 12.3499 25.2971 12.4423 25.3284 12.5395C25.3619 12.6434 25.3813 12.7513 25.3863 12.8603C25.3947 12.9947 25.3805 13.1295 25.3443 13.2592C25.2772 13.5042 25.123 13.7164 24.9105 13.856C24.7975 13.9292 24.6725 13.982 24.5413 14.012L24.5176 13.5684C24.5944 13.5473 24.6671 13.5135 24.7326 13.4682C24.792 13.4269 24.8436 13.3754 24.8849 13.316C24.9256 13.2559 24.9553 13.189 24.9727 13.1185C24.9914 13.0412 24.9986 12.9615 24.9939 12.882C24.9896 12.7785 24.964 12.677 24.9187 12.5839C24.8763 12.4988 24.8141 12.4252 24.7374 12.369C24.6535 12.3093 24.5584 12.2668 24.4579 12.2443C24.3366 12.217 24.2121 12.2074 24.0881 12.2159Z" fill="white"/>
<path d="M22.9552 14.2543L25.337 14.6984L25.1196 15.8626C25.0993 15.9792 25.0604 16.0917 25.0044 16.1959C24.956 16.2863 24.8905 16.3665 24.8116 16.432C24.7369 16.4925 24.6496 16.5356 24.5561 16.5582C24.4571 16.5814 24.3542 16.5833 24.2543 16.5635C24.1664 16.5477 24.0824 16.515 24.0071 16.4671C23.9381 16.4232 23.8791 16.3653 23.834 16.2971C23.7881 16.2264 23.7571 16.1471 23.7429 16.064C23.7267 15.9709 23.7267 15.8757 23.7429 15.7827C23.7197 15.8721 23.6668 15.951 23.593 16.0066C23.5022 16.0724 23.3986 16.1182 23.2888 16.141L22.5715 16.3139L22.6617 15.8323L23.378 15.6579C23.4222 15.6479 23.4651 15.6327 23.5057 15.6126C23.5398 15.5954 23.5702 15.5719 23.5954 15.5433C23.6217 15.5126 23.6421 15.4773 23.6556 15.4392C23.6736 15.3905 23.687 15.3402 23.6957 15.2889L23.7762 14.8602L22.8747 14.6921L22.9552 14.2543ZM24.0234 15.603C24.0108 15.6664 24.0074 15.7313 24.0133 15.7957C24.0187 15.8498 24.0351 15.9022 24.0615 15.9498C24.0861 15.9936 24.1204 16.0312 24.1618 16.0596C24.2071 16.0899 24.2584 16.1101 24.3122 16.1189C24.3643 16.1302 24.4182 16.1302 24.4703 16.1189C24.5177 16.1077 24.5617 16.0852 24.5985 16.0534C24.6389 16.0175 24.6717 15.974 24.6949 15.9252C24.7231 15.8658 24.7431 15.8027 24.7542 15.7379L24.8796 15.0635L24.1526 14.9282L24.0234 15.603Z" fill="white"/>
<path d="M22.5908 16.2928L24.4505 18.0716L24.1888 18.6578L21.6267 18.4545L21.8195 18.021L22.4168 18.0788L22.8424 17.1246L22.4004 16.7157L22.5908 16.2928ZM22.8169 18.1178L24.0456 18.2363L23.1398 17.3963L22.8169 18.1178Z" fill="white"/>
<path d="M23.5255 19.928L22.8381 20.8311C22.7877 20.898 22.7302 20.9592 22.6665 21.0137C22.6076 21.0635 22.5429 21.1061 22.4737 21.1403C22.4099 21.1726 22.3422 21.1962 22.2722 21.2107C22.2037 21.2241 22.1336 21.228 22.064 21.2222C21.9937 21.216 21.9247 21.1998 21.8591 21.1741C21.7201 21.118 21.5988 21.0257 21.5077 20.9067C21.4656 20.85 21.4316 20.7878 21.4064 20.7218C21.3821 20.6559 21.367 20.587 21.3616 20.517C21.356 20.4449 21.3602 20.3723 21.3742 20.3013C21.389 20.2258 21.4127 20.1524 21.445 20.0826C21.4799 20.0065 21.5233 19.9346 21.5742 19.8682L21.9916 19.3201L21.3274 18.8167L21.5973 18.4603L23.5255 19.928ZM21.8967 20.0792C21.8556 20.1326 21.8231 20.1921 21.8003 20.2555C21.7803 20.3097 21.7713 20.3673 21.7738 20.425C21.777 20.4793 21.7925 20.5322 21.8191 20.5797C21.879 20.6811 21.9762 20.7553 22.09 20.7863C22.1425 20.7986 22.1971 20.7986 22.2495 20.7863C22.3053 20.7736 22.3579 20.7499 22.4043 20.7165C22.4587 20.6776 22.5067 20.6305 22.5465 20.5768L22.9471 20.0498L22.2953 19.5547L21.8967 20.0792Z" fill="white"/>
<path d="M18.7341 21.4587L19.0754 21.1726L19.7257 21.9471L20.6136 21.2034L19.9638 20.4289L20.3051 20.1428L21.8621 21.9977L21.5203 22.2838L20.8672 21.5054L19.9792 22.2496L20.6334 23.028L20.2921 23.3141L18.7341 21.4587Z" fill="white"/>
<path d="M18.1748 21.7463L18.5551 21.5141L19.8191 23.58L19.4387 23.8122L18.1748 21.7463Z" fill="white"/>
<path d="M18.1234 23.1677C18.0779 23.0523 18.0158 22.944 17.9392 22.8464C17.8754 22.7653 17.7961 22.6977 17.7059 22.6475C17.6226 22.6024 17.5297 22.5779 17.435 22.5762C17.3317 22.5751 17.2294 22.5958 17.1347 22.6369C16.983 22.6909 16.8584 22.8018 16.7871 22.9461C16.7229 23.0829 16.7127 23.2525 16.7568 23.4548L16.3461 23.6234C16.3099 23.4797 16.2963 23.3314 16.3056 23.1836C16.3137 23.0503 16.3464 22.9197 16.402 22.7982C16.4582 22.6819 16.5364 22.5775 16.6324 22.4909C16.7362 22.3976 16.8557 22.3233 16.9853 22.2713C17.086 22.2294 17.1918 22.2009 17.3 22.1865C17.4012 22.1723 17.504 22.1723 17.6052 22.1865C17.7041 22.2013 17.8004 22.2304 17.891 22.2727C17.9838 22.3162 18.0703 22.3721 18.1479 22.4389C18.2306 22.5098 18.3041 22.5907 18.3668 22.6798C18.4351 22.7779 18.4922 22.8834 18.537 22.9943C18.5834 23.1046 18.617 23.2198 18.6372 23.3377C18.6557 23.4452 18.6608 23.5546 18.6522 23.6633C18.6439 23.7654 18.6218 23.8658 18.5866 23.962C18.5512 24.0558 18.5025 24.144 18.442 24.224C18.3807 24.3058 18.3081 24.3786 18.2265 24.4403C18.1396 24.5063 18.0443 24.5604 17.9431 24.6012C17.8146 24.6556 17.6775 24.6867 17.5382 24.6932C17.4086 24.6985 17.2792 24.6784 17.1573 24.6339C17.0334 24.5874 16.919 24.5185 16.8199 24.4306C16.7092 24.3322 16.6143 24.2171 16.5389 24.0896L16.9496 23.921C17.0614 24.0948 17.188 24.2081 17.3294 24.2611C17.4816 24.3137 17.6483 24.3049 17.7941 24.2365C17.8902 24.1991 17.9774 24.142 18.0501 24.0689C18.1161 24.0012 18.1649 23.9186 18.1923 23.8281C18.2211 23.7292 18.2298 23.6255 18.2178 23.5232C18.2038 23.4007 18.172 23.281 18.1234 23.1677Z" fill="white"/>
<path d="M15.3133 25.3429C15.1778 25.3663 15.0396 25.3696 14.9031 25.3526C14.7871 25.3384 14.675 25.3019 14.5729 25.2451C14.479 25.1921 14.3987 25.1179 14.3386 25.0284C14.2755 24.9324 14.2344 24.8237 14.2181 24.71L14.6433 24.6421C14.6518 24.7019 14.6748 24.7588 14.7103 24.8078C14.7455 24.8549 14.791 24.8935 14.8433 24.9205C14.9017 24.9498 14.9649 24.9684 15.0299 24.9754C15.1061 24.9839 15.1832 24.9816 15.2589 24.9687C15.3264 24.9578 15.3927 24.9399 15.4565 24.9152C15.5151 24.8926 15.5702 24.8616 15.6199 24.8232C15.6645 24.7887 15.7008 24.7446 15.726 24.6941C15.7507 24.6437 15.7585 24.5865 15.7481 24.5313C15.7428 24.484 15.7218 24.4399 15.6884 24.4061C15.6524 24.3743 15.6089 24.3523 15.5621 24.342C15.4996 24.3274 15.4358 24.3195 15.3716 24.3184C15.2979 24.3184 15.214 24.3184 15.1205 24.3184L15.0067 24.3184C14.9383 24.3184 14.8669 24.3184 14.7937 24.3184C14.7213 24.317 14.649 24.3117 14.5772 24.3025C14.5076 24.2928 14.439 24.2767 14.3724 24.2543C14.3082 24.2322 14.2481 24.1997 14.1945 24.158C14.1396 24.1151 14.0936 24.0619 14.059 24.0015C14.0188 23.9301 13.9923 23.8519 13.981 23.7707C13.9605 23.6582 13.9681 23.5424 14.0031 23.4336C14.0379 23.3315 14.0969 23.2395 14.1752 23.1653C14.2632 23.0832 14.3655 23.0179 14.477 22.9726C14.609 22.9179 14.7472 22.8797 14.8886 22.8589C15.0386 22.8331 15.1913 22.8276 15.3427 22.8426C15.4669 22.8548 15.5875 22.8907 15.698 22.9485C15.7966 23.0015 15.881 23.0775 15.9438 23.1701C16.0096 23.2696 16.0524 23.3824 16.0692 23.5005L15.6459 23.566C15.637 23.5021 15.6121 23.4415 15.5736 23.3897C15.5356 23.3395 15.486 23.2991 15.429 23.2722C15.3629 23.2418 15.2919 23.2234 15.2193 23.2178C15.1311 23.2106 15.0424 23.2145 14.9552 23.2293C14.8773 23.2412 14.8008 23.2612 14.7272 23.2891C14.6624 23.3126 14.6017 23.346 14.5474 23.3883C14.5004 23.4249 14.4627 23.4721 14.4374 23.526C14.4131 23.5809 14.4059 23.6419 14.4167 23.7009C14.4227 23.7519 14.4444 23.7997 14.4789 23.8377C14.5142 23.8715 14.5578 23.8956 14.6052 23.9075C14.665 23.9231 14.7265 23.9313 14.7884 23.9321C14.8583 23.9321 14.9359 23.9321 15.0217 23.9321L15.1663 23.9321C15.2174 23.9321 15.2704 23.9321 15.3244 23.9321C15.3784 23.9321 15.4329 23.9321 15.4869 23.9369C15.5408 23.9417 15.5944 23.9461 15.6464 23.9543C15.6975 23.9618 15.7478 23.9737 15.7968 23.9899C15.8438 24.0054 15.889 24.0257 15.9318 24.0506C15.9742 24.0752 16.0126 24.1062 16.0455 24.1426C16.0805 24.1812 16.1094 24.2249 16.1313 24.2722C16.1561 24.3274 16.1732 24.3857 16.182 24.4456C16.1947 24.5218 16.1947 24.5996 16.182 24.6758C16.1703 24.7461 16.147 24.814 16.113 24.8767C16.0785 24.9394 16.0344 24.9965 15.9824 25.0457C15.9272 25.0983 15.8658 25.1441 15.7997 25.182C15.7274 25.2227 15.6509 25.2556 15.5717 25.2803C15.4875 25.3083 15.401 25.3292 15.3133 25.3429Z" fill="white"/>
<path d="M12.7161 25.4687L11.8841 25.3482C11.7686 25.3322 11.6554 25.3028 11.5467 25.2606C11.446 25.2219 11.3508 25.1704 11.2633 25.1074C11.181 25.0469 11.1075 24.9752 11.0449 24.8945C10.9829 24.8144 10.9328 24.7258 10.8959 24.6315C10.858 24.5324 10.8334 24.4288 10.8227 24.3232C10.8117 24.208 10.8146 24.0919 10.8313 23.9774C10.847 23.8629 10.8768 23.7508 10.92 23.6436C10.9595 23.545 11.012 23.4522 11.0762 23.3676C11.1376 23.2866 11.2105 23.215 11.2927 23.1552C11.3751 23.0946 11.4656 23.046 11.5616 23.0107C11.6626 22.9742 11.768 22.951 11.875 22.9418C11.9918 22.9317 12.1094 22.9353 12.2254 22.9524L13.0574 23.0709L12.7161 25.4687ZM12.1763 23.345C12.0643 23.327 11.9499 23.3295 11.8388 23.3522C11.7409 23.3723 11.6488 23.4143 11.5694 23.475C11.4897 23.5372 11.4247 23.6161 11.379 23.7062C11.3262 23.811 11.2916 23.9241 11.2768 24.0405C11.2582 24.1565 11.2597 24.2747 11.2811 24.3902C11.2999 24.4896 11.3404 24.5837 11.3997 24.6657C11.4591 24.7458 11.5357 24.8117 11.6238 24.8584C11.7247 24.9112 11.8343 24.9456 11.9473 24.96L12.3392 25.0159L12.5696 23.3999L12.1763 23.345Z" fill="white"/>
<path d="M8.50659 24.4331L8.64156 24.0641L9.77774 24.4783L9.99418 23.8868L8.95152 23.5063L9.08215 23.1484L10.1248 23.529L10.3393 22.9399L9.17278 22.5141L9.30775 22.1451L10.8927 22.7231L10.0612 25L8.50659 24.4331Z" fill="white"/>
<path d="M7.09596 23.7105C6.97809 23.6398 6.87136 23.552 6.77926 23.45C6.70065 23.3634 6.63959 23.2625 6.59946 23.1528C6.56354 23.0512 6.5515 22.9428 6.56427 22.8358C6.57939 22.7219 6.61938 22.6127 6.68141 22.516L7.04728 22.7429C7.01547 22.7933 6.99629 22.8506 6.99136 22.91C6.98699 22.9686 6.99623 23.0275 7.01835 23.082C7.04315 23.1425 7.07876 23.198 7.12344 23.2457C7.17549 23.302 7.2352 23.3506 7.30083 23.3902C7.359 23.4265 7.4209 23.4563 7.48545 23.4793C7.54497 23.501 7.60733 23.5138 7.67056 23.5174C7.72691 23.5205 7.78323 23.5109 7.83542 23.4895C7.88596 23.4666 7.92797 23.4283 7.95545 23.3801C7.98236 23.3409 7.99526 23.2937 7.99208 23.2462C7.98573 23.1987 7.96731 23.1536 7.93857 23.1152C7.90113 23.0624 7.85797 23.014 7.80987 22.9707C7.75524 22.9209 7.69209 22.8658 7.62043 22.8055L7.53318 22.7327C7.48112 22.6884 7.42761 22.6419 7.37266 22.5931C7.31882 22.5446 7.26765 22.4934 7.21937 22.4394C7.17296 22.3868 7.13149 22.33 7.09548 22.2699C7.06076 22.2119 7.03599 22.1486 7.02221 22.0825C7.00893 22.0142 7.00893 21.9441 7.02221 21.8758C7.0398 21.7944 7.0725 21.717 7.11862 21.6475C7.17787 21.5486 7.26067 21.4659 7.35964 21.4067C7.45274 21.3524 7.55758 21.3213 7.66526 21.3161C7.78566 21.3117 7.90587 21.3292 8.02004 21.3677C8.15561 21.4124 8.28513 21.4738 8.40567 21.5502C8.53612 21.6287 8.65531 21.7244 8.75998 21.8349C8.84584 21.9253 8.91358 22.0312 8.95954 22.147C8.99961 22.2516 9.01367 22.3643 9.00051 22.4755C8.98502 22.5938 8.94353 22.7071 8.87904 22.8074L8.51317 22.581C8.54785 22.5267 8.5687 22.4646 8.57391 22.4004C8.57753 22.3373 8.56613 22.2742 8.54065 22.2164C8.51049 22.1501 8.4687 22.0897 8.41724 22.0382C8.3554 21.975 8.28574 21.92 8.20996 21.8744C8.14315 21.8325 8.07225 21.7975 7.99835 21.7699C7.93408 21.7456 7.86643 21.7315 7.79782 21.728C7.73824 21.7251 7.67882 21.7361 7.62428 21.7602C7.56991 21.7859 7.52455 21.8274 7.49413 21.8792C7.4649 21.9216 7.45003 21.9723 7.45171 22.0237C7.45585 22.0722 7.47245 22.1189 7.49991 22.1591C7.53507 22.2099 7.57618 22.2563 7.62235 22.2973C7.67441 22.3439 7.73322 22.3949 7.79878 22.4505L7.90724 22.5434C7.94677 22.5762 7.98678 22.6104 8.02823 22.646C8.06969 22.6817 8.10922 22.7183 8.14778 22.7559C8.18634 22.7934 8.22298 22.8329 8.2572 22.8729C8.2907 22.9121 8.32085 22.954 8.34735 22.9981C8.37289 23.0406 8.39389 23.0857 8.41001 23.1325C8.42598 23.1791 8.43476 23.2278 8.43604 23.277C8.43717 23.329 8.43035 23.3808 8.4158 23.4307C8.39872 23.4885 8.37356 23.5436 8.34108 23.5945C8.30117 23.6607 8.2505 23.7197 8.19116 23.7693C8.13619 23.815 8.07395 23.8511 8.00702 23.8762C7.93995 23.9013 7.86935 23.9156 7.79782 23.9186C7.72147 23.9225 7.64493 23.9174 7.56981 23.9032C7.48875 23.8873 7.40946 23.8635 7.33313 23.8319C7.25077 23.7983 7.17143 23.7576 7.09596 23.7105Z" fill="white"/>
<path d="M7.09455 20.6437L7.43535 20.9327L5.8745 22.7824L5.53369 22.4934L7.09455 20.6437Z" fill="white"/>
<path d="M5.72707 21.0445C5.82262 20.9641 5.90679 20.8711 5.97725 20.768C6.03535 20.6831 6.07599 20.5874 6.0968 20.4867C6.11472 20.3948 6.11026 20.3 6.08378 20.2102C6.05405 20.1134 6.00374 20.0242 5.93628 19.9487C5.87422 19.8753 5.80003 19.813 5.71695 19.7647C5.64147 19.7204 5.55844 19.6905 5.47207 19.6765C5.38941 19.6636 5.305 19.6674 5.22382 19.6876C5.13997 19.7083 5.06156 19.7467 4.99388 19.8003L5.48798 20.373L5.22864 20.596L4.45737 19.7025L5.43929 18.8567L5.71357 19.1746L5.22719 19.5937C5.32243 19.5495 5.4236 19.5195 5.5275 19.5046C5.62481 19.4902 5.72381 19.4918 5.82059 19.5094C5.91535 19.5271 6.00645 19.5606 6.09005 19.6086C6.17779 19.6591 6.25622 19.7243 6.32191 19.8013C6.38343 19.872 6.43367 19.9518 6.47086 20.0378C6.50627 20.121 6.52871 20.2093 6.53738 20.2993C6.54604 20.3915 6.5415 20.4844 6.52389 20.5753C6.50527 20.6721 6.47432 20.7662 6.43182 20.8552C6.38584 20.9519 6.32925 21.0431 6.2631 21.1273C6.19047 21.2201 6.10876 21.3055 6.01919 21.3821C5.92882 21.4605 5.83005 21.5287 5.72466 21.5854C5.62827 21.6367 5.52596 21.676 5.42001 21.7024C5.32043 21.7272 5.21794 21.7384 5.11536 21.7357C5.01565 21.7323 4.91695 21.7146 4.82227 21.6832C4.72527 21.6509 4.63328 21.6051 4.54896 21.5473C4.45957 21.4853 4.37856 21.4119 4.30793 21.3291C4.21929 21.2279 4.1481 21.1127 4.09728 20.9881C3.99987 20.7531 3.99232 20.4904 4.07607 20.2502C4.1203 20.123 4.18672 20.0046 4.27226 19.9005L4.56149 20.2377C4.51352 20.3012 4.47668 20.3723 4.45255 20.4482C4.43061 20.517 4.42146 20.5894 4.42555 20.6615C4.43023 20.7331 4.44753 20.8032 4.47665 20.8687C4.50887 20.9415 4.55212 21.0089 4.60487 21.0686C4.67094 21.148 4.75308 21.2125 4.84589 21.2579C4.9312 21.2994 5.0253 21.3198 5.12018 21.3171C5.2233 21.3131 5.32459 21.2885 5.41808 21.2448C5.53022 21.1933 5.6343 21.1258 5.72707 21.0445Z" fill="white"/>
<path d="M4.38852 16.7966L4.68883 17.3929L3.32803 19.2917L5.17859 18.364L5.37141 18.7493L3.20703 19.8345L2.88358 19.1924L4.17642 17.3852L2.41889 18.2676L2.22607 17.8823L4.38852 16.7966Z" fill="white"/>
<path d="M1.61084 15.6488L1.99165 15.5524L2.29149 16.7229L2.90223 16.5668L2.62699 15.4922L2.99623 15.3959L3.27148 16.4705L3.87693 16.3159L3.56938 15.1117L3.9502 15.0153L4.36813 16.6492L2.02058 17.2513L1.61084 15.6488Z" fill="white"/>
<path d="M3.92419 14.9388L1.50337 15.0404L1.45227 13.8574C1.44596 13.7393 1.45849 13.6209 1.48939 13.5068C1.51624 13.4076 1.56226 13.3147 1.62485 13.2332C1.684 13.1574 1.75924 13.0957 1.84514 13.0525C1.93643 13.0074 2.03642 12.9826 2.13822 12.9798C2.22719 12.9747 2.31628 12.9872 2.40045 13.0164C2.47774 13.0435 2.54839 13.0867 2.60773 13.1431C2.66846 13.2024 2.71665 13.2734 2.74945 13.3517C2.78597 13.4388 2.80748 13.5314 2.81308 13.6257C2.81601 13.5332 2.84997 13.4443 2.90949 13.3733C2.98331 13.2891 3.07394 13.2211 3.17558 13.1739L3.83405 12.844L3.85526 13.3353L3.19679 13.6672C3.15595 13.6868 3.1176 13.7112 3.08255 13.7399C3.05329 13.7643 3.02892 13.7941 3.01072 13.8275C2.99245 13.8636 2.98054 13.9026 2.97553 13.9427C2.96937 13.9941 2.9676 14.046 2.97023 14.0978L2.98903 14.5313L3.90491 14.4923L3.92419 14.9388ZM2.57881 13.8656C2.57719 13.8001 2.56582 13.7351 2.54507 13.6729C2.52818 13.6214 2.50095 13.5739 2.46505 13.5332C2.43119 13.4967 2.38927 13.4685 2.34261 13.4509C2.29157 13.4316 2.23702 13.4234 2.18257 13.4268C2.12929 13.4279 2.07687 13.4404 2.0288 13.4634C1.9851 13.4849 1.94735 13.5168 1.91889 13.5564C1.88838 13.5999 1.86676 13.649 1.85526 13.7009C1.84133 13.7652 1.83614 13.8312 1.83984 13.8969L1.86924 14.5799L2.60821 14.5481L2.57881 13.8656Z" fill="white"/>
<path d="M3.9502 12.2467L3.902 12.7216L3.40356 12.6686L3.45177 12.1937L3.9502 12.2467Z" fill="#FF5D15"/>
<g filter="url(#filter1_bd_31_247)">
<ellipse cx="13.4596" cy="13.4597" rx="8.78508" ry="8.78507" fill="#333738" fill-opacity="0.38" shape-rendering="crispEdges"/>
<path d="M22.1447 13.4597C22.1447 18.2563 18.2563 22.1448 13.4596 22.1448C8.663 22.1448 4.77456 18.2563 4.77456 13.4597C4.77456 8.66306 8.663 4.77462 13.4596 4.77462C18.2563 4.77462 22.1447 8.66306 22.1447 13.4597Z" stroke="#414141" stroke-width="0.2" shape-rendering="crispEdges"/>
</g>
<g clip-path="url(#clip1_31_247)">
<path d="M11.9421 14.2288C11.4574 14.2083 11.0409 14.3045 10.8704 14.515C10.7382 14.7017 10.6338 14.9066 10.5606 15.1233C10.5606 15.1233 10.7131 15.1325 10.95 15.4575C11.0709 15.6244 11.1939 15.7898 11.3187 15.9538L11.4233 15.8485C11.4233 15.8485 11.1296 15.3338 11.1662 15.2675C11.1747 15.2451 11.1906 15.2263 11.2113 15.2142C11.232 15.2021 11.2562 15.1974 11.2799 15.201C11.3276 15.201 11.5259 15.7528 11.5553 15.7342C11.5849 15.7159 11.6329 15.6976 11.6418 15.6677C11.6509 15.6383 11.4211 15.1258 11.4416 15.0867C11.4621 15.0479 11.5372 14.9908 11.5849 15.0296C11.6801 15.2071 11.7621 15.3915 11.8306 15.5809C11.8306 15.5809 11.9923 15.5329 11.9743 15.5054C11.8847 15.3068 11.8174 15.0989 11.7738 14.8854C11.7908 14.8685 11.8129 14.8576 11.8367 14.8543C11.8605 14.851 11.8847 14.8555 11.9058 14.8671C11.992 15.0698 12.068 15.2767 12.1334 15.4871C12.1334 15.4871 12.3794 15.5149 12.3611 15.4758C12.2501 15.2423 12.1573 15.0006 12.0835 14.7529C12.1198 14.7321 12.2929 14.6933 12.3109 14.7321C12.3292 14.7709 12.518 15.478 12.5568 15.4963C12.5957 15.5146 12.7457 15.6771 12.7457 15.5809C12.7457 15.4849 12.4817 14.7046 12.4817 14.7046C12.4887 14.6964 12.4974 14.6899 12.5073 14.6853C12.5171 14.6808 12.5277 14.6785 12.5385 14.6785C12.5493 14.6785 12.56 14.6808 12.5698 14.6853C12.5796 14.6899 12.5884 14.6964 12.5954 14.7046C12.6525 14.7712 12.8117 15.2356 12.823 15.1899C12.8344 15.1441 12.871 14.675 12.871 14.675C12.6154 14.4332 12.2906 14.2772 11.9421 14.2288ZM10.1306 18.0313C10.1306 18.0313 9.72295 17.3838 10.2443 16.9263C10.3725 16.7963 10.5263 16.6944 10.696 16.6271C10.8657 16.5597 11.0476 16.5284 11.23 16.535C11.23 16.535 11.0797 16.21 11.23 16.0775C11.23 16.0775 10.8521 15.4666 10.4719 15.3912C10.1021 15.3517 9.73081 15.4503 9.4293 15.6679C9.30813 15.7733 9.22771 15.9183 9.20193 16.0775C9.43683 16.0154 9.68532 16.029 9.91206 16.1163C10.3197 16.2583 10.3879 16.487 10.3879 16.487L10.1874 16.5647C10.0231 16.4086 9.80643 16.3196 9.57987 16.3151C9.35607 16.3176 9.13815 16.3871 8.95431 16.5148C8.77007 16.6426 8.62814 16.8224 8.54669 17.0314C8.493 17.2324 8.51954 17.4465 8.62073 17.6284C8.72194 17.81 8.8897 17.9445 9.08824 18.0038C9.43208 18.069 9.78368 18.0784 10.1306 18.0313Z" fill="#FF5D15"/>
<path d="M15.6887 17.6971C15.773 17.6697 16.0303 17.8322 16.144 17.7842L16.144 17.7934C16.2575 17.6608 16.3206 17.4926 16.3223 17.3181C16.324 17.1436 16.2641 16.9741 16.1531 16.8395C15.7821 16.4754 15.1288 16.5511 15.0151 16.5328C14.9014 16.5145 14.9195 15.7983 14.6918 15.7983C14.5049 15.8109 14.3235 15.8665 14.1616 15.9608C14.1045 16.0087 14.0158 16.1049 13.8086 15.9333C13.6015 15.7617 13.6015 14.5424 13.6015 14.5125C13.6015 14.4828 13.431 14.4371 13.431 14.4371C13.431 14.4371 13.3899 14.6955 13.2968 15.2467C13.2033 15.7985 12.9757 16.0842 12.862 16.1415C12.7483 16.1987 12.6343 16.0661 12.5206 15.9425C12.4069 15.8188 11.8856 15.7708 11.61 16.1712C11.3347 16.5716 11.8856 16.8484 11.9039 16.9058C11.922 16.9629 11.8172 17.0475 11.6943 17.0863C11.5715 17.1251 11.5917 17.0588 11.5917 17.0291C11.4443 16.9287 11.2668 16.8818 11.089 16.8963C10.999 16.9057 10.9117 16.933 10.8324 16.9765C10.753 17.02 10.6831 17.0789 10.6268 17.1498C10.5701 17.2207 10.5281 17.3022 10.5031 17.3895C10.4781 17.4768 10.4707 17.5681 10.4812 17.6583C10.5197 18.0773 11.0635 18.1064 11.2368 18.1158L11.239 18.1158C11.4098 18.125 11.8945 17.8893 12.113 17.8505C12.3315 17.8117 12.7663 18.0496 13.2216 18.0792C13.4958 18.0953 13.7697 18.0426 14.0183 17.9259C13.9129 17.8267 13.8346 17.7024 13.7906 17.5646C13.6769 17.2784 14.0385 16.8301 14.1525 16.7821C14.28 16.7477 14.4142 16.7477 14.5415 16.7821C14.5781 16.8004 14.5781 16.8963 14.5781 16.9446C14.5781 16.9925 14.5005 16.9559 14.4165 16.9263C14.3322 16.8966 14.1411 16.9263 14.0477 17.3838C13.9545 17.8413 14.6078 18.0313 14.874 18.0792C15.077 18.1127 15.2853 18.0722 15.461 17.965C15.509 17.9373 15.6046 17.7246 15.6887 17.6971Z" fill="#FF5D15"/>
<path d="M18.3154 17.688C18.3775 17.5807 18.4249 17.465 18.4562 17.345L18.4562 17.3541C18.507 17.1325 18.5044 16.9021 18.4486 16.6817C18.3928 16.4613 18.2855 16.2574 18.1354 16.0866C17.7278 15.6679 16.8449 15.7708 16.8449 15.7708C16.8322 15.8771 16.8133 15.9826 16.7881 16.0866C16.7698 16.1141 16.6561 16.0683 16.6081 16.0295C16.5604 15.9907 16.6539 15.7162 16.5127 15.4001C16.3713 15.0845 15.964 15.0091 15.6409 15.0959C15.5587 15.1114 15.4818 15.1474 15.4173 15.2006C15.3528 15.2539 15.3029 15.3226 15.2721 15.4004C15.2721 15.4004 15.2358 15.5351 15.1584 15.5146C14.9502 15.2767 14.7664 15.0185 14.61 14.7437C14.5894 14.6955 14.6848 14.6567 14.7511 14.6475C14.8171 14.6384 15.0741 15.1716 15.0922 15.2196C15.1105 15.2675 15.179 15.0867 15.197 15.0571C15.1493 14.9001 15.0892 14.7471 15.0173 14.5995C15.049 14.573 15.0898 14.5599 15.131 14.5629C15.1878 14.5721 15.3109 14.9633 15.3109 14.9633C15.3221 14.9439 15.3371 14.9269 15.3551 14.9136C15.3731 14.9002 15.3936 14.8907 15.4155 14.8857C15.4998 14.858 15.6501 14.8785 15.6795 14.858C15.7091 14.8375 15.6706 14.6772 15.6226 14.5812C15.5419 14.4722 15.4336 14.3865 15.3089 14.333C15.1841 14.2796 15.0474 14.2603 14.9128 14.2771C14.5825 14.3266 14.2697 14.4571 14.0021 14.6569C13.8405 14.9151 13.993 15.4688 14.0021 15.5351C14.0113 15.6017 14.1818 15.4392 14.2115 15.4392C14.1736 15.307 14.1161 15.1813 14.041 15.0662C14.0113 15.0388 14.0864 14.9425 14.1341 14.9425C14.1818 14.9425 14.4095 15.4001 14.4095 15.4001L14.5415 15.4187L14.257 14.858C14.2367 14.8192 14.3504 14.7712 14.3801 14.7803C14.4095 14.7895 14.7123 15.4392 14.7123 15.4392L14.9397 15.5237C15.1288 15.5903 15.3564 16.0866 15.3564 16.0866L15.4884 16.0866C15.5769 16.1066 15.6631 16.1357 15.7457 16.1734C15.6747 16.0219 15.5885 15.8779 15.4884 15.7436C15.461 15.7251 15.5475 15.6976 15.6226 15.7251C15.6978 15.7528 15.964 16.2103 15.964 16.2103C16.2769 16.3793 16.5286 16.6426 16.6832 16.9629C16.9406 17.498 16.3422 18.0404 16.3422 18.0404C16.4007 18.0609 16.4634 18.0663 16.5246 18.0564C16.5857 18.0464 16.6434 18.0213 16.6924 17.9833C16.7404 17.9556 16.795 17.8688 16.8632 17.8596C16.9314 17.8505 17.1657 17.9625 17.2522 17.9262C17.3388 17.8893 16.9564 17.4706 16.9201 17.4318C16.8837 17.3929 17.0249 17.3541 17.0634 17.3541C17.2237 17.518 17.3756 17.6897 17.5187 17.8688L17.7735 17.8893C17.7735 17.8893 17.2819 17.3333 17.2342 17.2967C17.1862 17.2601 17.3091 17.2099 17.3388 17.1825C17.3684 17.1548 17.9466 17.823 17.9762 17.8322C18.0056 17.8413 18.0625 17.7934 18.1196 17.7934C18.1764 17.7934 17.5323 17.1459 17.4935 17.1071C17.4547 17.0682 17.5392 16.9742 17.5961 16.9742C17.8525 17.1946 18.0931 17.4332 18.3154 17.688Z" fill="#FF5D15"/>
</g>
<g clip-path="url(#clip2_31_247)">
<path d="M13.482 9.48238C13.5249 9.48238 13.6273 9.10453 13.644 9.00138C13.6502 8.9858 13.6506 8.96852 13.6452 8.95265C13.6397 8.93678 13.6288 8.92338 13.6144 8.91486C13.6 8.90638 13.583 8.90335 13.5666 8.90634C13.5502 8.90932 13.5354 8.91812 13.5249 8.93113C13.4626 9.09613 13.4138 9.26589 13.3789 9.43875C13.377 9.46574 13.4288 9.47388 13.482 9.48238ZM14.2414 13.4716C14.2414 13.4716 14.1982 14.126 14.2063 14.1693C14.2148 14.2125 14.3708 14.2728 14.3952 14.2292C14.4266 13.9549 14.4266 13.6779 14.3952 13.4036C14.3523 13.3518 14.3028 13.4202 14.2414 13.4716ZM12.7877 13.9279C12.7761 14.1441 12.7906 14.361 12.8309 14.5738C12.8553 14.6337 12.9744 14.5634 13.0177 14.5386C13.0478 14.3334 13.0478 14.1249 13.0177 13.9197C13.0014 13.8162 12.8657 13.9031 12.7958 13.9279L12.7877 13.9279ZM12.4121 12.8631C12.4365 12.8631 12.574 12.7411 12.6173 12.6812C12.6605 12.6213 12.6335 12.5015 12.6335 12.4068C12.6335 12.3118 12.7962 12.3033 12.7962 12.3033L12.9334 12.6132L13.1552 12.6379L13.1818 12.8793C13.1469 12.9709 13.1209 13.0656 13.1042 13.1622C13.0899 13.2467 13.0983 13.3335 13.1285 13.4136C13.1588 13.4938 13.2099 13.5645 13.2765 13.6184C13.3626 13.7216 13.4384 14.0495 13.5083 14.0661C13.5785 14.0828 13.841 13.8598 13.9786 13.6184C14.1161 13.3766 14.0218 12.9991 14.0462 12.9991C14.071 12.9991 14.0462 12.7244 14.0462 12.7244C14.1098 12.703 14.1704 12.6738 14.2274 12.6379C14.3194 12.578 14.457 12.4316 14.4836 12.4316C14.5671 12.5488 14.6359 12.6756 14.6891 12.8091C14.7054 12.869 14.7402 12.8524 14.8163 12.8442C14.8921 12.8361 15.2537 11.7011 15.2452 11.5543C15.2371 11.4079 14.7997 11.1066 14.7997 11.1066C14.823 10.7774 14.823 10.4471 14.7997 10.1179C14.7568 9.57703 14.4407 8.34698 13.8247 8.30372C13.2084 8.26046 12.882 8.8546 12.6601 9.57703C12.5259 10.0757 12.4828 10.5944 12.533 11.1084C12.3267 11.2319 12.1289 11.3698 11.9414 11.5214C11.8985 11.5813 11.9089 11.6574 12.0198 11.9588C12.1322 12.2693 12.266 12.5714 12.4202 12.8631L12.4121 12.8631ZM14.6089 11.9155C14.6746 11.7297 14.7294 11.5402 14.7731 11.348L15.0197 11.5809C15.0037 11.6518 14.981 11.721 14.952 11.7876C14.8921 11.9425 14.7221 12.3717 14.6951 12.4068C14.6684 12.442 14.5165 12.1654 14.5165 12.1654C14.5165 12.1654 14.5328 12.1407 14.6171 11.9155L14.6089 11.9155ZM13.8307 13.2409C13.7865 13.4212 13.6918 13.5851 13.5578 13.7134C13.5269 13.6067 13.4805 13.5052 13.4199 13.4121C13.3719 13.3602 13.3439 13.2929 13.3409 13.2223C13.3379 13.1517 13.3602 13.0823 13.4036 13.0265C13.5105 12.9333 13.9087 12.9477 13.8388 13.2409L13.8307 13.2409ZM13.8307 12.9148C13.8063 12.9045 13.3604 12.8797 13.3604 12.8797L13.3604 12.6897C13.5286 12.6773 13.6975 12.6773 13.8658 12.6897C13.8658 12.7167 13.8573 12.923 13.8307 12.923L13.8307 12.9148ZM12.8905 10.4625C12.9149 9.509 13.3009 8.69155 13.5818 8.62131C13.8015 8.56992 14.2758 8.78657 14.3867 9.62879C14.4976 10.4706 14.43 11.2799 14.2843 11.6763C14.1383 12.0723 13.9493 12.3551 13.892 12.3551C13.6863 12.3637 13.4803 12.3548 13.2761 12.3285C13.0015 11.7458 12.8693 11.1063 12.8905 10.4625ZM12.5392 11.443C12.5999 11.6456 12.6457 11.8526 12.6768 12.0623C12.6605 12.097 12.4365 12.3551 12.4017 12.3037C12.3145 12.0919 12.2459 11.8729 12.1965 11.6493C12.2168 11.6038 12.523 11.3997 12.5392 11.443ZM13.377 10.7206C13.7549 11.03 14.1386 10.5143 14.1039 10.153C14.0984 10.0817 14.0768 10.0125 14.0408 9.95061C14.0047 9.88876 13.9551 9.83587 13.8957 9.7959C13.8365 9.75625 13.7689 9.73064 13.6982 9.72103C13.6276 9.71142 13.5556 9.71806 13.4879 9.74044C13.0095 9.93011 13.0014 10.4111 13.377 10.7206ZM13.5371 9.9693C13.5952 9.94645 13.6596 9.94531 13.7185 9.96609C13.7774 9.98687 13.8268 10.0282 13.8577 10.0824C13.8784 10.1186 13.8904 10.1591 13.8924 10.2007C13.9109 10.4067 13.6994 10.6832 13.482 10.512C13.4322 10.4831 13.3918 10.4404 13.3657 10.389C13.3396 10.3377 13.3289 10.2799 13.3349 10.2226C13.3408 10.1654 13.363 10.1112 13.3989 10.0663C13.4347 10.0214 13.4827 9.98774 13.5371 9.9693ZM13.373 10.9823C13.3482 10.8629 13.258 10.8444 13.2025 10.8917C13.1904 10.9031 13.1808 10.9169 13.1742 10.9322C13.1676 10.9474 13.1642 10.9639 13.1642 10.9805C13.1642 10.9971 13.1676 11.0135 13.1742 11.0288C13.1808 11.0441 13.1904 11.0578 13.2025 11.0692C13.2373 11.1128 13.3996 11.1043 13.3726 10.9827L13.373 10.9823ZM13.7833 11.0467C13.7589 10.9269 13.6687 10.9106 13.6133 10.9579C13.6012 10.9691 13.5917 10.9827 13.5851 10.9978C13.5785 11.0128 13.5752 11.0291 13.5752 11.0455C13.5752 11.062 13.5785 11.0782 13.5851 11.0933C13.5917 11.1084 13.6012 11.122 13.6133 11.1332C13.6521 11.1768 13.8144 11.1683 13.7878 11.0467L13.7833 11.0467ZM13.9375 10.8071C13.9254 10.8183 13.9158 10.8319 13.9092 10.847C13.9026 10.8621 13.8992 10.8784 13.8992 10.8949C13.8992 10.9114 13.9026 10.9277 13.9092 10.9428C13.9158 10.9579 13.9254 10.9715 13.9375 10.9827C13.9808 11.026 14.1427 11.0178 14.1183 10.898C14.0935 10.7782 13.997 10.7598 13.9416 10.8071L13.9375 10.8071ZM14.3479 10.5616C14.3235 10.4418 14.2333 10.4233 14.1778 10.4706C14.1657 10.482 14.1561 10.4958 14.1495 10.5111C14.143 10.5263 14.1396 10.5428 14.1396 10.5594C14.1396 10.576 14.143 10.5924 14.1495 10.6077C14.1561 10.6229 14.1657 10.6367 14.1778 10.6481C14.2248 10.6917 14.3871 10.6814 14.3605 10.5616L14.3483 10.5616L14.3479 10.5616ZM13.7756 11.2962C13.7593 11.2962 13.6957 11.3872 13.7079 11.4142C13.8107 11.4807 13.9194 11.538 14.0322 11.5853C14.0551 11.5853 14.0591 11.507 14.0632 11.4781C13.9864 11.3975 13.8924 11.3353 13.7881 11.2962L13.7756 11.2962ZM13.5889 11.5461C13.5889 11.5461 13.4717 11.6142 13.4757 11.6452C13.6051 11.7602 13.7475 11.8589 13.9009 11.9384C13.9442 11.9384 13.9564 11.9033 13.9604 11.8475C13.9645 11.792 13.6218 11.5543 13.6011 11.5461L13.5889 11.5461ZM13.3652 11.7754C13.3364 11.7916 13.285 11.8205 13.2809 11.8556C13.3981 11.9913 13.5367 12.1063 13.6913 12.1961C13.7345 12.1961 13.7674 12.1443 13.79 12.1096C13.8125 12.0745 13.3937 11.765 13.3774 11.7754L13.3652 11.7754Z" fill="#F7F7F9" fill-opacity="0.75"/>
</g>
</g>
<path d="M74.2832 20.61C73.8699 20.61 73.5232 20.47 73.2432 20.19C72.9632 19.91 72.8232 19.5633 72.8232 19.15C72.8232 18.7367 72.9632 18.39 73.2432 18.11C73.5232 17.83 73.8699 17.69 74.2832 17.69C74.6832 17.69 75.0232 17.83 75.3032 18.11C75.5832 18.39 75.7232 18.7367 75.7232 19.15C75.7232 19.5633 75.5832 19.91 75.3032 20.19C75.0232 20.47 74.6832 20.61 74.2832 20.61Z" fill="white"/>
<path d="M68.367 20.47L62.987 14.25V20.47H60.707V6.56999H62.987V12.91L68.387 6.56999H71.247L65.207 13.53L71.347 20.47H68.367Z" fill="white"/>
<path d="M53.2166 20.61C52.2833 20.61 51.4433 20.45 50.6966 20.13C49.95 19.7967 49.3633 19.33 48.9366 18.73C48.51 18.13 48.2966 17.43 48.2966 16.63H50.7366C50.79 17.23 51.0233 17.7233 51.4366 18.11C51.8633 18.4967 52.4566 18.69 53.2166 18.69C54.0033 18.69 54.6166 18.5033 55.0566 18.13C55.4966 17.7433 55.7166 17.25 55.7166 16.65C55.7166 16.1833 55.5766 15.8033 55.2966 15.51C55.03 15.2167 54.69 14.99 54.2766 14.83C53.8766 14.67 53.3166 14.4967 52.5966 14.31C51.69 14.07 50.95 13.83 50.3766 13.59C49.8166 13.3367 49.3366 12.95 48.9366 12.43C48.5366 11.91 48.3366 11.2167 48.3366 10.35C48.3366 9.55 48.5366 8.85 48.9366 8.25C49.3366 7.65 49.8966 7.19 50.6166 6.87C51.3366 6.55 52.17 6.39 53.1166 6.39C54.4633 6.39 55.5633 6.73 56.4166 7.41C57.2833 8.07667 57.7633 8.99667 57.8566 10.17H55.3366C55.2966 9.66333 55.0566 9.23 54.6166 8.87C54.1766 8.51 53.5966 8.33 52.8766 8.33C52.2233 8.33 51.69 8.49667 51.2766 8.83C50.8633 9.16333 50.6566 9.64333 50.6566 10.27C50.6566 10.6967 50.7833 11.05 51.0366 11.33C51.3033 11.5967 51.6366 11.81 52.0366 11.97C52.4366 12.13 52.9833 12.3033 53.6766 12.49C54.5966 12.7433 55.3433 12.9967 55.9166 13.25C56.5033 13.5033 56.9966 13.8967 57.3966 14.43C57.81 14.95 58.0166 15.65 58.0166 16.53C58.0166 17.2367 57.8233 17.9033 57.4366 18.53C57.0633 19.1567 56.51 19.6633 55.7766 20.05C55.0566 20.4233 54.2033 20.61 53.2166 20.61Z" fill="white"/>
<path d="M45.64 6.56999V20.47H43.36V10.95L39.12 20.47H37.54L33.28 10.95V20.47H31V6.56999H33.46L38.34 17.47L43.2 6.56999H45.64Z" fill="white"/>
<defs>
<filter id="filter0_b_31_247" x="-33.3552" y="-33.3552" width="93.6299" height="93.6299" filterUnits="userSpaceOnUse" color-interpolation-filters="sRGB">
<feFlood flood-opacity="0" result="BackgroundImageFix"/>
<feGaussianBlur in="BackgroundImageFix" stdDeviation="17"/>
<feComposite in2="SourceAlpha" operator="in" result="effect1_backgroundBlur_31_247"/>
<feBlend mode="normal" in="SourceGraphic" in2="effect1_backgroundBlur_31_247" result="shape"/>
</filter>
<filter id="filter1_bd_31_247" x="-39.3254" y="-29.3254" width="105.57" height="109.57" filterUnits="userSpaceOnUse" color-interpolation-filters="sRGB">
<feFlood flood-opacity="0" result="BackgroundImageFix"/>
<feGaussianBlur in="BackgroundImageFix" stdDeviation="17"/>
<feComposite in2="SourceAlpha" operator="in" result="effect1_backgroundBlur_31_247"/>
<feColorMatrix in="SourceAlpha" type="matrix" values="0 0 0 0 0 0 0 0 0 0 0 0 0 0 0 0 0 0 127 0" result="hardAlpha"/>
<feOffset dy="14"/>
<feGaussianBlur stdDeviation="22"/>
<feComposite in2="hardAlpha" operator="out"/>
<feColorMatrix type="matrix" values="0 0 0 0 0 0 0 0 0 0 0 0 0 0 0 0 0 0 0.1 0"/>
<feBlend mode="normal" in2="effect1_backgroundBlur_31_247" result="effect2_dropShadow_31_247"/>
<feBlend mode="normal" in="SourceGraphic" in2="effect2_dropShadow_31_247" result="shape"/>
</filter>
<clipPath id="clip0_31_247">
<rect width="27" height="27" fill="white" transform="translate(0 27) rotate(-90)"/>
</clipPath>
<clipPath id="clip1_31_247">
<rect width="10.537" height="4.99119" fill="white" transform="translate(8.22095 13.57)"/>
</clipPath>
<clipPath id="clip2_31_247">
<rect width="6.65492" height="6.65492" fill="white" transform="translate(10.4392 8.3015)"/>
</clipPath>
</defs>
</svg>
